<?xml version="1.0" encoding="utf-8"?>
<!-- Generator: Adobe Illustrator 19.0.0, SVG Export Plug-In . SVG Version: 6.00 Build 0)  -->
<svg version="1.1" id="layer" xmlns="http://www.w3.org/2000/svg" xmlns:xlink="http://www.w3.org/1999/xlink" x="0px" y="0px"
	 viewBox="-153 -46 652 652" style="enable-background:new -153 -46 652 652;" xml:space="preserve">
<style type="text/css">
	.st0{fill:#F4A200;}
	.st1{fill:#7E767E;}
</style>
<g>
	<path class="st0" d="M-73.2,246.1c-0.4,0-0.7,0.1-1.1,0.1c-18.8,0-37.7,0-56.5,0h-1.1v-24.7h58.7
		C-73.3,229.6-73.3,237.9-73.2,246.1C-73.3,246.1-73.2,246.1-73.2,246.1"/>
	<path class="st0" d="M-73.3,304.9c0-19.5,0-39,0-58.4c0-0.1,0-0.2,0-0.4c0,0,0,0,0,0c8.2,0,16.4,0,24.7,0v58.7L-73.3,304.9
		L-73.3,304.9z"/>
	<polyline class="st0" points="-73.3,304.8 -73.3,329.5 -131.9,329.5 -131.9,304.9 -73.3,304.9 -73.3,304.8 	"/>
	<path class="st1" d="M297.4,273.7c-0.2-1-0.5-2.1-0.8-3.1c-0.9-3.3-3.3-4.9-6.5-5.7c-2.7-0.6-5.5-0.4-8,0.7c-2.3,1-3.9,2.8-4.1,5.4
		c-0.2,2.4,0.9,4.8,3.4,5.8c2.4,1,5,1.5,7.5,2.2c4.8,1.2,9.8,1.7,14.5,3.6c4.3,1.8,8.1,4.3,10,8.7c3,6.8,2.7,13.5-1.7,19.6
		c-2.5,3.6-6.2,5.7-10.2,7.2c-3.2,1.2-6.6,1.8-10,2c-6,0.4-11.8,0-17.4-2.2c-7.1-2.7-11.6-7.7-13.1-15.3c-0.3-1.5-0.5-3-0.7-4.6h16
		c0.5,2.4,1,4.8,2.9,6.7c1.9,1.9,4.2,2.8,6.7,3.1c3.3,0.3,6.7,0.1,9.7-1.5c2.3-1.2,3.6-3,3.6-5.5c0-2.7-1.5-4.7-3.9-5.7
		c-2.2-0.9-4.5-1.5-6.8-2.1c-4.8-1.2-9.6-2.1-14.3-3.4c-4.4-1.2-7.9-3.9-10.2-7.9c-1.1-1.9-1.7-3.9-1.9-6.1
		c-0.3-3.2-0.4-6.3,0.7-9.4c2-5.7,6.1-9.4,11.5-11.7c3.4-1.4,6.9-2,10.6-2.2c5.1-0.3,10,0.2,14.7,2c7,2.8,11.5,7.9,12.8,15.4
		c0.2,1.3,0.4,2.6,0.6,3.9H297.4z"/>
	<polygon class="st1" points="134.6,266.2 134.6,253.9 147.2,253.9 147.2,232.3 163.4,232.3 163.4,253.8 179.5,253.8 179.5,266 
		163.5,266 163.5,306.5 179.4,306.5 179.4,318.7 147.3,318.7 147.3,266.2 	"/>
	<polygon class="st1" points="355.8,266.2 355.8,253.9 368.5,253.9 368.5,232.3 384.6,232.3 384.6,253.8 400.7,253.8 400.7,266.1 
		384.8,266.1 384.8,306.5 400.7,306.5 400.7,318.7 368.6,318.7 368.6,266.2 	"/>
	<rect x="327.7" y="253.9" class="st1" width="15.7" height="64.8"/>
	<rect x="327.2" y="232.2" class="st1" width="16.4" height="13.8"/>
	<path class="st1" d="M56.1,265.4c-0.5-4.3-1.3-8.5-2.7-12.5c-2-5.5-5-10.3-9.7-13.9c-6.1-4.6-13.3-6.6-20.9-6.8
		c-11-0.3-22-0.1-33-0.1c-0.4,0-0.8,0-1.2,0.1v86.6h1.4c9.7,0,19.3,0,29,0c4.4,0,8.7-0.4,12.9-1.5c5.6-1.4,10.5-3.9,14.6-8.1
		c3.5-3.5,5.7-7.8,7.2-12.4c1.6-4.8,2.5-9.9,2.6-14.9C56.6,276.4,56.7,270.9,56.1,265.4 M39.4,288.1c0,3.2-0.6,6.3-2.4,9.1
		c-1.7,2.8-4.2,4.6-7.1,5.7c-3.7,1.5-7.6,1.9-11.6,1.9c-4.3,0-8.6,0-13,0v-58.7c5.3,0,10.4-0.2,15.6,0.1c3.7,0.1,7.4,0.9,10.7,2.6
		c4.1,2.2,6.6,5.5,7.3,10.1c0.3,1.8,0.5,3.7,0.5,5.5C39.4,272.3,39.5,280.2,39.4,288.1"/>
	<path class="st1" d="M244.6,306.6V305c0-10.2,0-20.4,0-30.5c0-2.2-0.2-4.4-0.7-6.5c-1.2-5.3-4.2-9.4-9-12.2
		c-4.7-2.7-9.9-3.5-15.1-3.6c-3.1,0-6.2,0.4-9.3,1c-5.5,1.1-10.3,3.4-14,7.8c-3.1,3.7-4.5,8-4.7,12.8h16c0.1-4.2,2.2-6.9,6-8.3
		c2.7-1,5.4-1.1,8.2-0.5c2.9,0.6,5.1,2.1,6.2,5c1,2.6,0.8,5.3,0.8,8c0,0.2-0.6,0.6-1,0.7c-1.3,0.2-2.6,0.2-3.9,0.3
		c-4.1,0.4-8.3,0.7-12.4,1.2c-2.7,0.3-5.4,0.7-8,1.5c-5.4,1.7-9.6,4.9-12.1,10c-2,4-2.4,8.2-1.6,12.6c1.4,7.3,5.5,12.2,12.4,14.8
		c4.1,1.6,8.3,1.7,12.6,1c4.2-0.7,7.8-2.4,10.8-5.4c1.5-1.5,2.5-3.4,3.8-5.1c0.2-0.3,0.5-0.4,1-0.9v10.1h23.3v-12.2H244.6z
		 M225.5,303.5c-2.2,2.8-5.2,4.2-8.7,4.5c-2.7,0.2-5.3-0.1-7.7-1.3c-1.9-1-2.9-2.5-3-4.5c-0.1-2.2,0.1-4.4,0.2-6.7
		c0.1-2,1.7-3,3.6-3.2c4-0.3,8.1-0.6,12.1-1c2.3-0.2,4.5-0.5,6.9-0.7C229.1,295.4,228.5,299.8,225.5,303.5"/>
	<path class="st1" d="M122.2,306.5V305c0-10,0-20,0-30.1c0-2-0.1-4-0.5-5.9c-1.6-8.2-6.8-13.1-14.3-15.4c-4.2-1.3-8.5-1.8-12.9-1.2
		c-2.5,0.3-5.1,0.5-7.6,1c-4.4,0.9-8.4,3-11.6,6.1c-2.1,2-3.7,4.5-4.6,7.3c-0.7,2.2-1.4,4.5-1.1,6.9h15.8c0.2-3.2,1.3-5.7,4.1-7.4
		c3.2-1.9,6.7-2.1,10.2-1.4c3.6,0.8,6,3,6.6,6.7c0.4,2.2,0.3,4.5,0.4,6.8c-2.2,0.2-4.1,0.4-6,0.6c-3.7,0.3-7.3,0.8-11,0.9
		c-3.6,0.2-6.9,0.9-10.2,2.2c-4.7,1.9-8.2,5.1-10.4,9.7c-1.9,3.9-2.2,8.1-1.5,12.4c1.2,7.7,7,13.6,14.5,15.4
		c2.9,0.7,5.7,0.9,8.7,0.5c3.3-0.4,6.4-1.3,9.3-3c3.1-1.9,5.3-4.6,7-7.7c0.2-0.3,0.5-0.5,0.9-1v10.1h23.2v-12.2H122.2z M101.7,305
		c-2,1.9-4.5,2.8-7.3,3c-2.6,0.1-5.1-0.1-7.5-1.2c-2.2-1-3.1-2.8-3.2-5.1c0-2.1,0.1-4.3,0.2-6.4c0.1-1.6,1.8-2.8,3.8-2.9
		c3.3-0.2,6.7-0.6,10-0.9c2-0.2,4.1-0.3,6.2-0.5c0.8-0.1,1.6-0.1,2.6-0.2C106.8,296.2,105.9,301.2,101.7,305"/>
	<path class="st1" d="M427.6,291.3c11,0,21.9,0,32.9,0h7.5c0-2.9,0.1-5.6,0-8.4c-0.2-2.9-0.3-5.9-1-8.7c-1.5-6.5-4.7-12-10-16.2
		c-5.2-4.1-11.3-5.8-17.8-5.9c-2.1,0-4.3,0.3-6.3,0.7c-8.6,1.5-14.7,6.5-18.9,14c-3.1,5.6-4.1,11.7-4.4,17.9
		c-0.1,1.5,0.2,3.1,0.2,4.6c0,3.9,0.8,7.6,1.9,11.2c1.7,5.5,4.7,10.2,9.2,13.8c4.7,3.9,10.3,5.6,16.4,5.9c3.5,0.2,7-0.2,10.4-0.9
		c5-1.1,9.4-3.4,13-7c2.9-3,5-6.6,6.1-10.6c0.4-1.4,0.6-2.8,0.9-4.3c-5.2,0-10.1,0-14.9,0c-0.9,0-1.1,0.3-1.3,1.2
		c-0.8,3.7-2.8,6.5-6.4,8c-3.8,1.6-7.7,1.6-11.5,0.1c-2.9-1.1-5-3.1-6.3-6.1c-1.1-2.6-1-5.2-1.1-7.9
		C426,291.7,426.4,291.3,427.6,291.3 M426.1,278c0-3.5,0.8-6.7,3.2-9.3c1.8-2,4.1-3.2,6.7-3.7c3.8-0.8,7.5-0.2,10.7,2.1
		c3.1,2.2,4.9,5.3,5,9.2c0,0.9,0,1.8,0,2.9H435c-2.6,0-5.1,0-7.7,0C426.4,279.1,426.1,278.9,426.1,278"/>
</g>
</svg>
